M48
;Layer_Color=9474304
;FILE_FORMAT=4:4
METRIC
;TYPE=PLATED
T1F00S00C0.9000
%
T01
X01375410Y00322580
X01400810
Y00347980
X01375410
Y00373380
X01400810
X01435100Y00341630
X01460500
Y00316230
X01435100
Y00290830
X01460500
X01618000Y00350000
X01709420Y00353060
Y00327660
Y00302260
Y00276860
X01673860Y00267970
Y00307340
X01400810Y00398780
X01375410
M30
